<?xml version="1.0" encoding="utf-8"?>
<!-- Generator: Adobe Illustrator 22.1.0, SVG Export Plug-In . SVG Version: 6.00 Build 0)  -->
<svg version="1.1" id="Layer_1" xmlns="http://www.w3.org/2000/svg" xmlns:xlink="http://www.w3.org/1999/xlink" x="0px" y="0px"
	 viewBox="0 0 500 500" style="enable-background:new 0 0 500 500;" xml:space="preserve">
<g>
	<polygon points="474.5,235.7 490.4,251.2 486.6,273 500,266 500,225.2 496.4,232.5 	"/>
	<polygon points="491.5,317.9 496.7,323 495.5,330.2 500,327.8 500,314.2 498.7,316.8 	"/>
	<polygon points="496,55.3 488.8,56.3 494,61.4 492.8,68.6 499.3,65.2 500,65.6 500,50.2 499.3,48.7 	"/>
	<polygon points="0.5,486.5 0,485.5 0,485.5 0,500 0.5,500 13.9,500 19.3,494.7 3.4,492.4 	"/>
	<polygon points="72.9,69.8 69.5,89.6 87.3,80.3 105.1,89.6 101.7,69.8 116.1,55.8 96.2,52.9 87.3,34.9 78.4,52.9 58.6,55.8 	"/>
	<polygon points="331.9,154.3 302.5,150 289.3,123.3 276.1,150 246.7,154.3 268,175.1 263,204.4 289.3,190.6 315.6,204.4 
		310.6,175.1 	"/>
	<polygon points="68.6,435.4 59.7,417.3 50.7,435.4 30.7,438.3 45.2,452.5 41.8,472.4 59.7,463 77.6,472.4 74.2,452.5 88.6,438.3 	
		"/>
	<polygon points="37.9,235.7 16,232.5 6.2,212.7 0.5,224.2 0,225.2 0,266 0.5,265.7 6.2,262.8 25.8,273 22,251.2 	"/>
	<polygon points="182.3,224.3 164.7,259.9 125.4,265.7 153.9,293.4 147.1,332.5 182.3,314 217.5,332.5 210.7,293.4 239.2,265.7 
		199.9,259.9 	"/>
	<polygon points="403.6,357.1 396.3,342.3 389,357.1 372.7,359.5 384.5,371 381.7,387.2 396.3,379.6 410.9,387.2 408.1,371 
		419.9,359.5 	"/>
	<polygon points="419.6,112.3 406.9,114.2 416.1,123.1 414,135.8 425.3,129.8 436.7,135.8 434.5,123.1 443.7,114.2 431,112.3 
		425.3,100.8 	"/>
	<polygon points="349.6,45.7 357.3,41.7 365,45.7 363.5,37.2 369.7,31.1 361.1,29.9 357.3,22.1 353.5,29.9 344.9,31.1 351.1,37.2 	
		"/>
	<polygon points="251.6,87.4 258.3,83.8 265,87.4 263.7,79.9 269.1,74.6 261.7,73.5 258.3,66.7 255,73.5 247.5,74.6 252.9,79.9 	"/>
	<polygon points="148.9,107.2 146.6,120.2 158.3,114.1 170,120.2 167.7,107.2 177.2,98 164.1,96.1 158.3,84.3 152.5,96.1 139.4,98 	
		"/>
	<polygon points="98.6,185.9 103.9,180.7 96.6,179.6 93.3,173 90,179.6 82.7,180.7 88,185.9 86.7,193.2 93.3,189.7 99.9,193.2 	"/>
	<polygon points="43.3,202.7 49.9,206.2 48.6,198.9 53.9,193.7 46.6,192.6 43.3,186 40,192.6 32.7,193.7 38,198.9 36.7,206.2 	"/>
	<polygon points="186.3,164.8 190.6,167 189.8,162.3 193.2,158.9 188.4,158.2 186.3,153.9 184.2,158.2 179.4,158.9 182.8,162.3 
		182,167 	"/>
	<polygon points="473.8,461.3 477.2,457.9 472.4,457.2 470.3,452.9 468.2,457.2 463.4,457.9 466.8,461.3 466,466 470.3,463.8 
		474.6,466 	"/>
	<polygon points="103.6,366 101.5,370.3 96.7,371 100.1,374.4 99.3,379.1 103.6,376.9 107.9,379.1 107.1,374.4 110.5,371 
		105.7,370.3 	"/>
	<polygon points="104.5,452.3 102.4,448 100.3,452.3 95.5,453 98.9,456.4 98.1,461.1 102.4,458.9 106.7,461.1 105.9,456.4 
		109.3,453 	"/>
	<polygon points="173.4,58.5 185.3,52.3 197.2,58.5 194.9,45.3 204.6,35.9 191.3,34 185.3,21.9 179.4,34 166,35.9 175.7,45.3 	"/>
	<polygon points="362.2,99.5 367.5,102.3 366.5,96.3 370.8,92.1 364.9,91.3 362.2,85.9 359.5,91.3 353.6,92.1 357.9,96.3 
		356.9,102.3 	"/>
	<polygon points="443.5,66.1 449.3,63.1 455.1,66.1 454,59.7 458.7,55.1 452.2,54.2 449.3,48.3 446.4,54.2 439.9,55.1 444.6,59.7 	
		"/>
	<polygon points="149.7,409.7 144.3,398.7 138.9,409.7 126.8,411.4 135.5,420 133.5,432.1 144.3,426.4 155.1,432.1 153.1,420 
		161.8,411.4 	"/>
	<polygon points="264.1,364.8 261.4,380.2 275.3,372.9 289.2,380.2 286.5,364.8 297.7,353.8 282.2,351.6 275.3,337.5 268.4,351.6 
		252.9,353.8 	"/>
	<polygon points="327.4,248.7 318.6,250 325,256.2 323.5,264.9 331.3,260.8 339.1,264.9 337.6,256.2 344,250 335.2,248.7 
		331.3,240.8 	"/>
	<polygon points="423,220.9 416.3,207.3 409.6,220.9 394.6,223.1 405.5,233.7 402.9,248.6 416.3,241.5 429.7,248.6 427.1,233.7 
		438,223.1 	"/>
	<polygon points="468.1,416 457.2,414.4 452.3,404.5 447.4,414.4 436.5,416 444.4,423.7 442.5,434.6 452.3,429.5 462.1,434.6 
		460.2,423.7 	"/>
	<polygon points="356.3,417.8 347.3,399.7 338.3,417.8 318.3,420.7 332.8,434.9 329.4,454.8 347.3,445.4 365.2,454.8 361.8,434.9 
		376.3,420.7 	"/>
	<polygon points="211.5,419.8 208.3,413.3 205.1,419.8 198,420.8 203.2,425.8 201.9,432.9 208.3,429.5 214.7,432.9 213.4,425.8 
		218.6,420.8 	"/>
	<polygon points="220.5,360 215.3,349.4 210.1,360 198.5,361.7 206.9,369.9 204.9,381.5 215.3,376 225.7,381.5 223.7,369.9 
		232.1,361.7 	"/>
	<polygon points="164.8,359.3 161.3,352.1 157.8,359.3 149.9,360.4 155.6,366 154.2,373.9 161.3,370.2 168.4,373.9 167,366 
		172.8,360.4 	"/>
	<polygon points="344.2,142.9 351.3,139.2 358.4,142.9 357,135 362.8,129.4 354.8,128.3 351.3,121.1 347.8,128.3 339.9,129.4 
		345.6,135 	"/>
	<polygon points="79.4,270.3 75.5,278.3 66.6,279.6 73,285.8 71.5,294.6 79.4,290.4 87.3,294.6 85.8,285.8 92.2,279.6 83.3,278.3 	
		"/>
	<polygon points="130.3,482.3 124.5,494.1 111.5,496 115.6,500 145,500 149.1,496 136.1,494.1 	"/>
	<polygon points="424.9,468.8 420.3,459.5 415.7,468.8 405.4,470.3 412.9,477.6 411.1,487.8 420.3,483 429.5,487.8 427.7,477.6 
		435.2,470.3 	"/>
	<polygon points="489.2,492.4 473.3,494.7 478.7,500 500,500 500,485.5 500,485.5 496.3,478 	"/>
	<polygon points="267.3,226.5 264.2,232.8 257.2,233.9 262.2,238.8 261.1,245.7 267.3,242.5 273.6,245.7 272.4,238.8 277.4,233.9 
		270.4,232.8 	"/>
	<polygon points="450.8,162.6 438.6,164.4 447.5,173 445.4,185.2 456.3,179.4 467.2,185.2 465.1,173 474,164.4 461.8,162.6 
		456.3,151.5 	"/>
	<polygon points="298.2,88.7 295.6,104 309.3,96.8 323,104 320.4,88.7 331.5,77.9 316.2,75.7 309.3,61.8 302.4,75.7 287.1,77.9 	"/>
	<polygon points="393.8,47.8 377.1,50.3 389.2,62.1 386.3,78.7 401.3,70.9 416.3,78.7 413.4,62.1 425.5,50.3 408.8,47.8 401.3,32.7 
			"/>
	<polygon points="470.1,100.7 476.3,97.5 482.6,100.7 481.4,93.8 486.4,88.9 479.4,87.8 476.3,81.5 473.2,87.8 466.2,88.9 
		471.2,93.8 	"/>
	<polygon points="360.3,321.7 376.2,330 373.2,312.3 386,299.8 368.2,297.2 360.3,281.1 352.4,297.2 334.6,299.8 347.5,312.3 
		344.4,330 	"/>
	<polygon points="471.9,311.4 466.3,300 460.7,311.4 448.1,313.2 457.2,322.1 455.1,334.6 466.3,328.7 477.5,334.6 475.4,322.1 
		484.5,313.2 	"/>
	<polygon points="415.1,266.5 410.3,256.7 405.5,266.5 394.7,268.1 402.5,275.7 400.7,286.4 410.3,281.3 419.9,286.4 418.1,275.7 
		425.9,268.1 	"/>
	<polygon points="470.1,205.3 467.3,199.7 464.5,205.3 458.3,206.2 462.8,210.6 461.7,216.8 467.3,213.9 472.9,216.8 471.8,210.6 
		476.3,206.2 	"/>
	<polygon points="388.1,160.9 384.3,153.1 380.5,160.9 371.9,162.1 378.1,168.2 376.6,176.7 384.3,172.7 392,176.7 390.5,168.2 
		396.7,162.1 	"/>
	<polygon points="199.3,189.7 190.5,191 196.9,197.2 195.4,206 203.3,201.9 211.2,206 209.7,197.2 216.1,191 207.3,189.7 
		203.3,181.7 	"/>
	<polygon points="149.3,193.3 144.3,183.1 139.3,193.3 128.1,194.9 136.2,202.8 134.3,213.9 144.3,208.7 154.3,213.9 152.4,202.8 
		160.5,194.9 	"/>
	<polygon points="119,120.9 112.3,107.3 105.6,120.9 90.6,123.1 101.5,133.7 98.9,148.6 112.3,141.5 125.7,148.6 123.1,133.7 
		134,123.1 	"/>
	<polygon points="378.4,9.7 376.5,20.6 386.3,15.5 396.1,20.6 394.2,9.7 402.1,2 402.1,2 402.1,2 391.9,0.5 391.2,0.4 391,0 
		381.6,0 381.4,0.4 380.7,0.5 370.5,2 370.5,2 370.5,2 	"/>
	<polygon points="459.8,250.7 457.3,245.5 454.8,250.7 449.1,251.5 453.2,255.5 452.2,261.1 457.3,258.4 462.4,261.1 461.4,255.5 
		465.5,251.5 	"/>
	<polygon points="484.3,151.6 492.8,159.9 490.8,171.6 500,166.8 500,141.9 496,149.9 	"/>
	<polygon points="276.7,433.5 273.3,426.7 270,433.5 262.5,434.6 267.9,439.9 266.6,447.4 273.3,443.8 280,447.4 278.7,439.9 
		284.1,434.6 	"/>
	<polygon points="208.3,456.3 203.3,446.1 198.3,456.3 187.1,457.9 195.2,465.8 193.3,476.9 203.3,471.7 213.3,476.9 211.4,465.8 
		219.5,457.9 	"/>
	<polygon points="152.5,451 147.3,440.4 142.1,451 130.5,452.7 138.9,460.9 136.9,472.5 147.3,467 157.7,472.5 155.7,460.9 
		164.1,452.7 	"/>
	<polygon points="332.5,468.8 329.3,462.3 326.1,468.8 319,469.8 324.2,474.8 322.9,481.9 329.3,478.5 335.7,481.9 334.4,474.8 
		339.6,469.8 	"/>
	<polygon points="410.4,417.5 417.6,410.5 407.7,409.1 403.3,400.1 398.9,409.1 389,410.5 396.2,417.5 394.5,427.3 403.3,422.6 
		412.1,427.3 	"/>
	<polygon points="284.7,277.1 280.3,268.3 275.9,277.1 266.2,278.5 273.2,285.4 271.6,295.2 280.3,290.6 289,295.2 287.4,285.4 
		294.4,278.5 	"/>
	<polygon points="269.3,470.9 260.4,488.9 240.6,491.8 249,500 289.7,500 298.1,491.8 278.2,488.9 	"/>
	<polygon points="381.6,500 391,500 386.3,490.5 	"/>
	<polygon points="40.7,37.3 50.9,31.9 61.2,37.3 59.2,25.9 67.5,17.9 56,16.2 50.9,5.9 45.8,16.2 34.5,17.9 42.7,25.9 	"/>
	<polygon points="491.9,360.8 475.5,363.2 487.3,374.8 484.5,391.2 499.3,383.5 500,383.9 500,347.4 499.3,345.9 	"/>
	<polygon points="73.7,326.4 69.2,317.3 64.6,326.4 54.5,327.9 61.8,335.1 60.1,345.2 69.2,340.4 78.2,345.2 76.5,335.1 83.9,327.9 
			"/>
	<polygon points="22.5,93.2 29,89.8 35.4,93.2 34.2,86 39.5,80.9 32.2,79.8 29,73.3 25.7,79.8 18.5,80.9 23.7,86 	"/>
	<polygon points="55,122.3 51.7,128.8 44.5,129.9 49.7,135 48.5,142.2 55,138.8 61.4,142.2 60.2,135 65.5,129.9 58.2,128.8 	"/>
	<polygon points="55.2,380.8 52,374.3 48.7,380.8 41.5,381.9 46.7,387 45.5,394.2 52,390.8 58.4,394.2 57.2,387 62.5,381.9 	"/>
	<polygon points="110.2,227.8 107,221.3 103.7,227.8 96.5,228.9 101.7,234 100.5,241.2 107,237.8 113.4,241.2 112.2,234 
		117.5,228.9 	"/>
	<polygon points="214.5,141.2 221,137.8 227.4,141.2 226.2,134 231.5,128.9 224.2,127.8 221,121.3 217.7,127.8 210.5,128.9 
		215.7,134 	"/>
	<polygon points="217.3,23.5 222,21.1 226.6,23.5 225.7,18.3 229.5,14.7 224.3,13.9 222,9.3 219.6,13.9 214.5,14.7 218.2,18.3 	"/>
	<polygon points="5.7,68.6 4.5,61.4 9.8,56.3 2.5,55.3 0.5,51.2 0,50.2 0,65.6 0.5,65.9 	"/>
	<polygon points="134.5,30.3 131.3,23.7 128,30.3 120.8,31.3 126,36.4 124.8,43.6 131.3,40.2 137.7,43.6 136.5,36.4 141.8,31.3 	"/>
	<polygon points="1.3,166.1 11.8,171.6 9.8,159.9 18.3,151.6 6.6,149.9 1.3,139.3 0.5,140.9 0,141.9 0,166.8 0.5,166.5 	"/>
	<polygon points="0.5,348.4 0.5,327.6 2,326.8 8.4,330.2 7.2,323 12.5,317.9 5.2,316.8 2,310.3 0.5,313.2 0,314.2 0,327.8 0,347.4 
		0,383.9 0.5,384.1 14,391.2 11.2,374.8 23.1,363.2 6.6,360.8 	"/>
	<polygon points="120.9,5.2 118.7,18.2 130.3,12 141.9,18.2 139.7,5.2 144.5,0.5 145,0 115.6,0 116.1,0.5 	"/>
	<polygon points="254.9,5.8 251.5,25.6 269.3,16.3 287.1,25.6 283.7,5.8 289.2,0.5 289.7,0 249,0 249.5,0.5 	"/>
	<polygon points="478.7,0 479.3,0.5 484.8,5.9 482.1,21.7 496.3,14.2 500,16.2 500,0.5 500,0 	"/>
	<polygon points="10.5,21.7 7.8,5.9 13.3,0.5 13.9,0 0.5,0 0,0 0,0.5 0,16.2 0.5,16.4 	"/>
</g>
</svg>
